<svg xmlns="http://www.w3.org/2000/svg" width="38.502" height="38.503" viewBox="0 0 38.502 38.503">
  <g id="Grupo_65" data-name="Grupo 65" transform="translate(-470.091 -508.327)">
    <path id="Trazado_113" data-name="Trazado 113" d="M508.593,512.452V542.7a4.125,4.125,0,0,1-4.125,4.126H474.216a4.125,4.125,0,0,1-4.125-4.126V512.452a4.125,4.125,0,0,1,4.125-4.125h30.252A4.125,4.125,0,0,1,508.593,512.452Zm-15.3,23.377a3.953,3.953,0,1,0-3.953,3.953A3.954,3.954,0,0,0,493.3,535.829Zm-7.706-18.164.637,11.688a1.031,1.031,0,0,0,1.029.975h4.173a1.031,1.031,0,0,0,1.029-.975l.638-11.688a1.031,1.031,0,0,0-1.03-1.087h-5.447A1.031,1.031,0,0,0,485.589,517.665Z" transform="translate(0 0)" fill="#01b0f3"/>
  </g>
</svg>
