<svg xmlns="http://www.w3.org/2000/svg" width="39.767" height="31.814" viewBox="0 0 39.767 31.814">
  <path id="Trazado_112" data-name="Trazado 112" d="M367.5,532.983a2.975,2.975,0,0,1-2.982,2.945H350.6a2.975,2.975,0,0,1-2.983-2.945,6.96,6.96,0,0,1,6.959-7,1.413,1.413,0,0,1,.438.068,7.758,7.758,0,0,0,5.088,0,1.413,1.413,0,0,1,.438-.068A6.96,6.96,0,0,1,367.5,532.983Zm-15.907-14.951A5.965,5.965,0,1,1,357.558,524,5.965,5.965,0,0,1,351.593,518.032Zm35.79-10.837v19.686a3.037,3.037,0,0,1-2.982,3.081h-15.2a7.921,7.921,0,0,0-2.466-3.977h4.737v-3.977h7.953v3.977h3.977v-17.9H361.534v3.094a7.861,7.861,0,0,0-3.976-1.106V507.2a3.036,3.036,0,0,1,2.982-3.082H384.4A3.036,3.036,0,0,1,387.383,507.2Z" transform="translate(-347.616 -504.114)" fill="#01b0f3"/>
</svg>
