<svg xmlns="http://www.w3.org/2000/svg" width="30.127" height="34.432" viewBox="0 0 30.127 34.432">
  <g id="Grupo_63" data-name="Grupo 63" transform="translate(-225.142 -504.114)">
    <path id="Trazado_111" data-name="Trazado 111" d="M225.949,514.874a.807.807,0,0,1-.807-.807v-2.421a3.228,3.228,0,0,1,3.228-3.228H231.6v-3.5a.807.807,0,0,1,.807-.807h2.69a.807.807,0,0,1,.807.807v3.5h8.608v-3.5a.807.807,0,0,1,.807-.807h2.689a.807.807,0,0,1,.807.807v3.5h3.228a3.228,3.228,0,0,1,3.228,3.228v2.421a.807.807,0,0,1-.807.807Zm28.513,2.152a.807.807,0,0,1,.807.807v17.485a3.228,3.228,0,0,1-3.228,3.228H228.37a3.228,3.228,0,0,1-3.228-3.228V517.833a.807.807,0,0,1,.807-.807Zm-7.994,4.542a.807.807,0,0,0-1.141,0l-7.131,7.073L235.1,525.52a.807.807,0,0,0-1.142,0l-1.909,1.895a.806.806,0,0,0,0,1.141l5.555,5.6a.806.806,0,0,0,1.141,0l9.614-9.536a.807.807,0,0,0,0-1.141Z" transform="translate(0 0)" fill="#01b0f3"/>
  </g>
</svg>
