<?xml version="1.0" encoding="UTF-8"?>
<svg xmlns="http://www.w3.org/2000/svg" xmlns:xlink="http://www.w3.org/1999/xlink" width="130px" height="54px" viewBox="0 0 130 54" version="1.1">
<g id="surface1">
<path style=" stroke:none;fill-rule:nonzero;fill:rgb(15.294118%,65.882353%,87.843137%);fill-opacity:1;" d="M 0.289062 18.976562 C 0.152344 18.851562 0.078125 18.683594 0.0742188 18.503906 L 0.0742188 1.046875 C 0.0664062 0.851562 0.140625 0.660156 0.277344 0.515625 C 0.414062 0.378906 0.601562 0.308594 0.800781 0.3125 L 9.675781 0.3125 C 11.601562 0.175781 13.515625 0.671875 15.09375 1.714844 C 16.320312 2.71875 16.976562 4.199219 16.875 5.71875 C 16.898438 6.523438 16.640625 7.3125 16.140625 7.964844 C 15.722656 8.535156 15.167969 9.003906 14.519531 9.335938 C 16.226562 10.078125 17.316406 11.691406 17.304688 13.460938 C 17.402344 15.070312 16.695312 16.632812 15.394531 17.683594 C 13.816406 18.777344 11.875 19.304688 9.921875 19.175781 L 0.789062 19.175781 C 0.601562 19.175781 0.421875 19.101562 0.289062 18.976562 Z M 9.066406 7.78125 C 9.65625 7.808594 10.230469 7.613281 10.667969 7.242188 C 11.058594 6.871094 11.269531 6.363281 11.242188 5.839844 C 11.265625 5.335938 11.066406 4.84375 10.6875 4.480469 C 10.246094 4.105469 9.660156 3.917969 9.066406 3.957031 L 5.472656 3.957031 L 5.472656 7.78125 Z M 9.324219 15.542969 C 9.96875 15.582031 10.601562 15.363281 11.0625 14.941406 C 11.882812 14.085938 11.882812 12.792969 11.0625 11.9375 C 10.605469 11.515625 9.976562 11.296875 9.335938 11.335938 L 5.472656 11.335938 L 5.472656 15.5625 Z M 9.324219 15.542969 "/>
<path style=" stroke:none;fill-rule:nonzero;fill:rgb(15.294118%,65.882353%,87.843137%);fill-opacity:1;" d="M 22.722656 18.894531 C 21.933594 18.566406 21.257812 18.039062 20.769531 17.375 C 19.546875 15.722656 19.953125 13.453125 21.6875 12.269531 C 23.019531 11.417969 24.546875 10.878906 26.148438 10.695312 L 29.722656 10.175781 L 29.722656 9.855469 C 29.765625 9.335938 29.609375 8.820312 29.285156 8.402344 C 28.890625 8.058594 28.359375 7.890625 27.820312 7.941406 C 27.488281 7.929688 27.160156 7.996094 26.863281 8.132812 C 26.550781 8.289062 26.257812 8.480469 25.988281 8.695312 C 25.785156 8.863281 25.5625 9.011719 25.324219 9.132812 C 25.273438 9.242188 25.164062 9.316406 25.039062 9.324219 L 21.699219 9.324219 C 21.523438 9.324219 21.355469 9.261719 21.230469 9.144531 C 21.109375 9.039062 21.054688 8.886719 21.078125 8.734375 C 21.144531 8.128906 21.414062 7.554688 21.847656 7.101562 C 22.457031 6.417969 23.238281 5.882812 24.121094 5.550781 C 25.3125 5.089844 26.597656 4.867188 27.886719 4.898438 C 29.78125 4.757812 31.660156 5.28125 33.167969 6.371094 C 34.347656 7.398438 34.976562 8.867188 34.882812 10.375 L 34.882812 18.546875 C 34.890625 18.71875 34.820312 18.890625 34.691406 19.015625 C 34.554688 19.148438 34.367188 19.21875 34.167969 19.214844 L 30.636719 19.214844 C 30.246094 19.210938 29.929688 18.914062 29.921875 18.546875 L 29.921875 17.605469 C 29.464844 18.1875 28.859375 18.652344 28.164062 18.964844 C 27.328125 19.328125 26.417969 19.503906 25.496094 19.488281 C 24.535156 19.488281 23.589844 19.285156 22.722656 18.894531 Z M 28.984375 15.492188 C 29.546875 14.859375 29.832031 14.050781 29.773438 13.230469 L 29.773438 12.898438 L 27.382812 13.277344 C 25.785156 13.570312 24.972656 14.109375 24.972656 14.890625 C 24.964844 15.292969 25.179688 15.671875 25.539062 15.890625 C 25.949219 16.152344 26.433594 16.285156 26.925781 16.273438 C 27.699219 16.300781 28.449219 16.015625 28.984375 15.492188 Z M 28.984375 15.492188 "/>
<path style=" stroke:none;fill-rule:nonzero;fill:rgb(15.294118%,65.882353%,87.843137%);fill-opacity:1;" d="M 37.710938 18.984375 C 37.574219 18.859375 37.496094 18.6875 37.496094 18.503906 L 37.496094 5.839844 C 37.492188 5.660156 37.570312 5.484375 37.710938 5.359375 C 37.84375 5.234375 38.023438 5.164062 38.210938 5.171875 L 41.742188 5.171875 C 41.929688 5.160156 42.109375 5.222656 42.242188 5.339844 C 42.378906 5.457031 42.460938 5.617188 42.46875 5.789062 L 42.46875 6.863281 C 43.007812 6.246094 43.691406 5.757812 44.464844 5.429688 C 45.339844 5.058594 46.296875 4.871094 47.257812 4.890625 C 48.28125 4.875 49.285156 5.117188 50.171875 5.589844 C 51.050781 6.082031 51.75 6.804688 52.1875 7.671875 C 52.707031 8.707031 52.960938 9.84375 52.925781 10.988281 L 52.925781 18.503906 C 52.921875 18.679688 52.847656 18.847656 52.722656 18.976562 C 52.585938 19.109375 52.394531 19.183594 52.199219 19.175781 L 48.378906 19.175781 C 48.183594 19.183594 47.996094 19.117188 47.855469 18.984375 C 47.710938 18.863281 47.628906 18.6875 47.632812 18.503906 L 47.632812 11.148438 C 47.683594 10.476562 47.460938 9.808594 47.015625 9.285156 C 46.546875 8.832031 45.890625 8.59375 45.222656 8.632812 C 44.546875 8.605469 43.886719 8.84375 43.40625 9.292969 C 42.941406 9.808594 42.710938 10.472656 42.757812 11.148438 L 42.757812 18.503906 C 42.753906 18.679688 42.683594 18.847656 42.554688 18.976562 C 42.417969 19.109375 42.226562 19.179688 42.03125 19.175781 L 38.210938 19.175781 C 38.027344 19.175781 37.84375 19.109375 37.710938 18.984375 Z M 37.710938 18.984375 "/>
<path style=" stroke:none;fill-rule:nonzero;fill:rgb(15.294118%,65.882353%,87.843137%);fill-opacity:1;" d="M 57.777344 17.824219 C 56.402344 16.667969 55.625 15.011719 55.644531 13.277344 L 55.644531 11.097656 C 55.621094 9.359375 56.398438 7.699219 57.777344 6.542969 C 59.28125 5.398438 61.179688 4.816406 63.113281 4.898438 C 64.558594 4.855469 66 5.140625 67.304688 5.730469 C 68.308594 6.195312 69.175781 6.882812 69.832031 7.734375 C 70.324219 8.34375 70.632812 9.066406 70.71875 9.824219 C 70.738281 10.011719 70.664062 10.191406 70.515625 10.316406 C 70.371094 10.453125 70.175781 10.527344 69.972656 10.527344 L 66.140625 10.527344 C 65.96875 10.535156 65.796875 10.484375 65.660156 10.386719 C 65.523438 10.265625 65.414062 10.117188 65.339844 9.957031 C 65.191406 9.519531 64.910156 9.132812 64.53125 8.84375 C 64.15625 8.601562 63.707031 8.480469 63.25 8.492188 C 61.777344 8.492188 61.011719 9.414062 60.945312 11.246094 L 60.945312 13.128906 C 60.902344 13.859375 61.117188 14.585938 61.554688 15.191406 C 61.976562 15.652344 62.605469 15.898438 63.25 15.851562 C 63.710938 15.878906 64.167969 15.761719 64.550781 15.523438 C 64.921875 15.226562 65.195312 14.835938 65.339844 14.402344 C 65.414062 14.238281 65.523438 14.089844 65.660156 13.96875 C 65.796875 13.871094 65.96875 13.820312 66.140625 13.828125 L 69.992188 13.828125 C 70.1875 13.832031 70.371094 13.898438 70.515625 14.019531 C 70.65625 14.136719 70.738281 14.304688 70.738281 14.480469 C 70.675781 15.203125 70.402344 15.894531 69.949219 16.484375 C 69.3125 17.363281 68.445312 18.074219 67.433594 18.546875 C 66.113281 19.171875 64.644531 19.480469 63.164062 19.4375 C 61.21875 19.542969 59.300781 18.96875 57.777344 17.824219 Z M 57.777344 17.824219 "/>
<path style=" stroke:none;fill-rule:nonzero;fill:rgb(15.294118%,65.882353%,87.843137%);fill-opacity:1;" d="M 75.445312 17.875 C 74.097656 16.722656 73.324219 15.089844 73.308594 13.378906 C 73.308594 13.148438 73.308594 12.75 73.308594 12.167969 C 73.308594 11.585938 73.308594 11.167969 73.308594 10.957031 C 73.3125 9.25 74.089844 7.628906 75.445312 6.492188 C 78.757812 4.359375 83.128906 4.359375 86.441406 6.492188 C 87.796875 7.628906 88.574219 9.25 88.578125 10.957031 C 88.578125 11.425781 88.628906 11.828125 88.628906 12.167969 C 88.628906 12.507812 88.628906 12.917969 88.578125 13.378906 C 88.558594 15.089844 87.785156 16.71875 86.441406 17.875 C 83.078125 19.976562 78.691406 19.976562 75.328125 17.875 Z M 82.75 15.363281 C 83.195312 14.738281 83.429688 14 83.414062 13.25 C 83.414062 13.070312 83.414062 12.707031 83.414062 12.167969 C 83.414062 11.628906 83.414062 11.277344 83.414062 11.097656 C 83.421875 10.347656 83.191406 9.617188 82.75 8.996094 C 82.308594 8.554688 81.699219 8.300781 81.054688 8.289062 C 80.410156 8.277344 79.789062 8.503906 79.328125 8.925781 C 79.296875 8.941406 79.273438 8.964844 79.253906 8.996094 C 78.816406 9.617188 78.585938 10.351562 78.589844 11.097656 L 78.589844 13.25 C 78.582031 14 78.8125 14.734375 79.253906 15.363281 C 79.710938 15.796875 80.339844 16.039062 80.992188 16.039062 C 81.644531 16.039062 82.269531 15.796875 82.730469 15.363281 Z M 82.75 15.363281 "/>
<path style=" stroke:none;fill-rule:nonzero;fill:rgb(15.294118%,65.882353%,87.843137%);fill-opacity:1;" d="M 98.261719 17.804688 C 97.117188 16.484375 96.511719 14.820312 96.554688 13.117188 L 96.554688 11.175781 C 96.527344 9.492188 97.136719 7.851562 98.285156 6.550781 C 99.398438 5.40625 101 4.789062 102.648438 4.871094 C 104.207031 4.804688 105.722656 5.375 106.808594 6.429688 L 106.808594 0.714844 C 106.804688 0.53125 106.886719 0.355469 107.03125 0.234375 C 107.164062 0.113281 107.347656 0.0429688 107.535156 0.0429688 L 111.234375 0.0429688 C 111.433594 0.0429688 111.621094 0.109375 111.769531 0.234375 C 111.910156 0.355469 111.988281 0.53125 111.980469 0.714844 L 111.980469 18.515625 C 111.988281 18.695312 111.910156 18.871094 111.769531 18.996094 C 111.625 19.125 111.433594 19.195312 111.234375 19.1875 L 107.820312 19.1875 C 107.425781 19.179688 107.105469 18.886719 107.097656 18.515625 L 107.097656 17.675781 C 106 18.902344 104.347656 19.5625 102.648438 19.457031 C 100.996094 19.539062 99.394531 18.933594 98.261719 17.804688 Z M 106.144531 14.960938 C 106.570312 14.417969 106.800781 13.761719 106.808594 13.089844 C 106.808594 12.589844 106.808594 12.25 106.808594 12.085938 C 106.808594 11.925781 106.808594 11.558594 106.808594 11.085938 C 106.800781 10.453125 106.5625 9.835938 106.136719 9.34375 C 105.671875 8.863281 105 8.609375 104.3125 8.652344 C 103.59375 8.570312 102.878906 8.832031 102.414062 9.355469 C 102.003906 9.953125 101.78125 10.644531 101.773438 11.355469 L 101.773438 13.027344 C 101.777344 13.738281 102 14.433594 102.414062 15.03125 C 103.425781 15.976562 105.058594 15.976562 106.070312 15.03125 Z M 106.144531 14.960938 "/>
<path style=" stroke:none;fill-rule:nonzero;fill:rgb(15.294118%,65.882353%,87.843137%);fill-opacity:1;" d="M 116.71875 17.683594 C 115.289062 16.320312 114.539062 14.457031 114.648438 12.546875 L 114.648438 11.71875 C 114.613281 9.847656 115.382812 8.042969 116.78125 6.710938 C 118.261719 5.457031 120.210938 4.808594 122.203125 4.910156 C 123.660156 4.859375 125.109375 5.179688 126.394531 5.832031 C 127.5 6.421875 128.390625 7.316406 128.945312 8.394531 C 129.527344 9.554688 129.820312 10.824219 129.796875 12.109375 L 129.796875 12.777344 C 129.804688 13.160156 129.476562 13.472656 129.070312 13.480469 L 119.941406 13.480469 L 119.941406 13.640625 C 119.925781 14.332031 120.136719 15.015625 120.546875 15.59375 C 120.921875 16.082031 121.539062 16.359375 122.179688 16.332031 C 122.554688 16.34375 122.921875 16.257812 123.246094 16.082031 C 123.542969 15.898438 123.808594 15.675781 124.035156 15.421875 C 124.152344 15.285156 124.292969 15.167969 124.453125 15.082031 C 124.613281 15.027344 124.785156 15.003906 124.953125 15.011719 L 128.71875 15.011719 C 128.882812 15.011719 129.042969 15.0625 129.167969 15.160156 C 129.285156 15.25 129.351562 15.382812 129.347656 15.523438 C 129.273438 16.144531 128.976562 16.722656 128.507812 17.164062 C 127.824219 17.875 126.976562 18.429688 126.03125 18.785156 C 124.820312 19.257812 123.515625 19.484375 122.203125 19.457031 C 120.199219 19.554688 118.230469 18.921875 116.71875 17.683594 Z M 124.496094 10.675781 L 124.496094 10.625 C 124.542969 9.914062 124.332031 9.207031 123.898438 8.625 C 123.484375 8.144531 122.855469 7.882812 122.203125 7.914062 C 121.554688 7.898438 120.941406 8.171875 120.546875 8.652344 C 120.125 9.242188 119.917969 9.945312 119.960938 10.65625 L 119.960938 10.707031 Z M 124.496094 10.675781 "/>
<path style=" stroke:none;fill-rule:nonzero;fill:rgb(15.294118%,65.882353%,87.843137%);fill-opacity:1;" d="M 0.191406 38.980469 C 0.0625 38.875 -0.0117188 38.71875 0 38.558594 L 0 23.070312 C -0.00390625 22.90625 0.0664062 22.753906 0.191406 22.640625 C 0.3125 22.527344 0.480469 22.46875 0.652344 22.480469 L 3.777344 22.480469 C 4.109375 22.46875 4.386719 22.710938 4.40625 23.019531 L 4.40625 38.566406 C 4.40625 38.722656 4.339844 38.871094 4.222656 38.980469 C 4.109375 39.09375 3.945312 39.15625 3.777344 39.148438 L 0.652344 39.148438 C 0.476562 39.160156 0.308594 39.097656 0.191406 38.980469 Z M 0.191406 38.980469 "/>
<path style=" stroke:none;fill-rule:nonzero;fill:rgb(15.294118%,65.882353%,87.843137%);fill-opacity:1;" d="M 25.101562 38.898438 C 24.324219 38.621094 23.625 38.175781 23.0625 37.597656 C 22.675781 37.230469 22.441406 36.75 22.402344 36.234375 C 22.402344 36.085938 22.472656 35.949219 22.59375 35.855469 C 22.703125 35.757812 22.847656 35.703125 23 35.703125 L 26.03125 35.703125 C 26.121094 35.699219 26.210938 35.730469 26.273438 35.796875 C 26.441406 35.886719 26.601562 35.988281 26.753906 36.09375 C 27.03125 36.292969 27.328125 36.464844 27.640625 36.605469 C 27.957031 36.726562 28.292969 36.785156 28.632812 36.785156 C 29.003906 36.792969 29.375 36.707031 29.699219 36.535156 C 29.976562 36.40625 30.144531 36.136719 30.136719 35.84375 C 30.148438 35.621094 30.066406 35.398438 29.902344 35.234375 C 29.640625 35.023438 29.328125 34.863281 28.996094 34.773438 C 28.339844 34.574219 27.667969 34.421875 26.988281 34.3125 C 24.09375 33.773438 22.652344 32.519531 22.660156 30.558594 C 22.671875 29.894531 22.902344 29.25 23.320312 28.71875 C 23.820312 28.085938 24.496094 27.59375 25.273438 27.296875 C 26.253906 26.917969 27.304688 26.730469 28.367188 26.753906 C 29.460938 26.730469 30.546875 26.910156 31.566406 27.285156 C 32.339844 27.558594 33.035156 27.996094 33.605469 28.558594 C 34.007812 28.90625 34.257812 29.386719 34.308594 29.898438 C 34.3125 30.039062 34.253906 30.179688 34.148438 30.277344 C 34.054688 30.386719 33.914062 30.449219 33.765625 30.449219 L 31.011719 30.449219 C 30.886719 30.453125 30.761719 30.417969 30.660156 30.347656 C 30.445312 30.253906 30.246094 30.136719 30.0625 30 C 29.808594 29.839844 29.542969 29.699219 29.273438 29.566406 C 29 29.457031 28.707031 29.40625 28.410156 29.417969 C 28.058594 29.386719 27.710938 29.476562 27.425781 29.667969 C 27.203125 29.824219 27.074219 30.066406 27.074219 30.328125 C 27.074219 30.535156 27.148438 30.738281 27.289062 30.898438 C 27.539062 31.105469 27.839844 31.253906 28.164062 31.328125 C 28.824219 31.519531 29.5 31.671875 30.179688 31.78125 C 31.492188 31.90625 32.734375 32.402344 33.742188 33.203125 C 34.425781 33.789062 34.828125 34.609375 34.863281 35.476562 C 34.898438 36.34375 34.566406 37.191406 33.933594 37.828125 C 33.71875 38.046875 33.472656 38.234375 33.199219 38.386719 C 31.789062 39.160156 30.167969 39.523438 28.535156 39.4375 C 27.363281 39.472656 26.199219 39.289062 25.101562 38.898438 Z M 25.101562 38.898438 "/>
<path style=" stroke:none;fill-rule:nonzero;fill:rgb(15.294118%,65.882353%,87.843137%);fill-opacity:1;" d="M 60.808594 38.449219 C 59.636719 37.449219 58.96875 36.03125 58.972656 34.542969 C 58.972656 34.34375 58.972656 33.992188 58.972656 33.492188 C 58.972656 32.992188 58.972656 32.632812 58.972656 32.429688 C 58.980469 30.941406 59.667969 29.527344 60.859375 28.546875 C 63.75 26.675781 67.574219 26.675781 70.460938 28.546875 C 71.652344 29.53125 72.335938 30.945312 72.351562 32.429688 C 72.351562 32.839844 72.351562 33.191406 72.351562 33.492188 C 72.351562 33.792969 72.351562 34.132812 72.351562 34.542969 C 72.347656 36.027344 71.683594 37.445312 70.515625 38.449219 C 67.582031 40.277344 63.761719 40.277344 60.828125 38.449219 Z M 67.207031 36.265625 C 67.589844 35.71875 67.789062 35.078125 67.785156 34.421875 C 67.785156 34.273438 67.785156 33.953125 67.785156 33.492188 C 67.785156 33.03125 67.785156 32.703125 67.785156 32.550781 C 67.785156 31.902344 67.582031 31.265625 67.207031 30.71875 C 66.394531 29.933594 65.058594 29.90625 64.210938 30.660156 L 64.15625 30.71875 C 63.773438 31.261719 63.570312 31.898438 63.582031 32.550781 L 63.582031 34.421875 C 63.570312 35.078125 63.769531 35.71875 64.15625 36.265625 C 64.558594 36.644531 65.101562 36.859375 65.671875 36.859375 C 66.242188 36.859375 66.785156 36.644531 67.1875 36.265625 Z M 67.207031 36.265625 "/>
<path style=" stroke:none;fill-rule:nonzero;fill:rgb(15.294118%,65.882353%,87.843137%);fill-opacity:1;" d="M 91.488281 39.417969 C 91.367188 39.3125 91.296875 39.164062 91.296875 39.007812 L 91.296875 27.996094 C 91.292969 27.835938 91.355469 27.675781 91.46875 27.554688 C 91.585938 27.441406 91.753906 27.378906 91.925781 27.386719 L 94.945312 27.386719 C 95.296875 27.378906 95.589844 27.644531 95.597656 27.976562 L 95.597656 28.878906 C 96.050781 28.402344 96.605469 28.023438 97.226562 27.765625 C 97.902344 27.496094 98.628906 27.363281 99.363281 27.375 L 100.492188 27.375 C 100.652344 27.371094 100.804688 27.425781 100.921875 27.523438 C 101.039062 27.625 101.105469 27.765625 101.109375 27.917969 L 101.109375 30.519531 C 101.113281 30.671875 101.050781 30.816406 100.941406 30.929688 C 100.828125 31.050781 100.664062 31.117188 100.492188 31.109375 L 97.953125 31.109375 C 97.386719 31.074219 96.828125 31.261719 96.417969 31.628906 C 96.035156 32.027344 95.839844 32.550781 95.875 33.082031 L 95.875 39 C 95.878906 39.160156 95.808594 39.3125 95.679688 39.417969 C 95.558594 39.53125 95.394531 39.589844 95.222656 39.589844 L 91.925781 39.589844 C 91.761719 39.589844 91.605469 39.527344 91.488281 39.417969 Z M 91.488281 39.417969 "/>
<path style=" stroke:none;fill-rule:nonzero;fill:rgb(15.294118%,65.882353%,87.843137%);fill-opacity:1;" d="M 83.304688 39.828125 C 81.828125 39.910156 80.394531 39.335938 79.433594 38.277344 L 79.433594 39.007812 C 79.421875 39.328125 79.144531 39.585938 78.804688 39.589844 L 75.828125 39.589844 C 75.65625 39.601562 75.492188 39.542969 75.371094 39.429688 C 75.242188 39.324219 75.171875 39.167969 75.175781 39.007812 L 75.175781 23.511719 C 75.171875 23.351562 75.242188 23.195312 75.371094 23.089844 C 75.492188 22.980469 75.65625 22.917969 75.828125 22.921875 L 79.027344 22.921875 C 79.191406 22.917969 79.351562 22.980469 79.464844 23.089844 C 79.589844 23.199219 79.660156 23.351562 79.65625 23.511719 L 79.65625 28.515625 C 80.605469 27.601562 81.925781 27.105469 83.285156 27.15625 C 84.71875 27.09375 86.109375 27.632812 87.082031 28.625 C 88.074219 29.753906 88.605469 31.171875 88.585938 32.632812 L 88.585938 34.304688 C 88.632812 35.789062 88.105469 37.238281 87.105469 38.386719 C 86.125 39.367188 84.734375 39.894531 83.304688 39.828125 Z M 80.265625 35.914062 C 80.6875 36.316406 81.265625 36.542969 81.867188 36.542969 C 82.46875 36.542969 83.042969 36.316406 83.464844 35.914062 C 83.828125 35.398438 84.023438 34.800781 84.03125 34.183594 L 84.03125 32.730469 C 84.011719 32.144531 83.820312 31.574219 83.476562 31.078125 C 83.074219 30.636719 82.472656 30.40625 81.855469 30.457031 C 81.253906 30.417969 80.667969 30.640625 80.265625 31.058594 C 79.894531 31.492188 79.6875 32.027344 79.679688 32.582031 C 79.679688 32.992188 79.679688 33.28125 79.679688 33.453125 C 79.679688 33.621094 79.679688 33.902344 79.679688 34.332031 C 79.6875 34.917969 79.890625 35.488281 80.253906 35.964844 Z M 80.265625 35.914062 "/>
<path style=" stroke:none;fill-rule:nonzero;fill:rgb(15.294118%,65.882353%,87.843137%);fill-opacity:1;" d="M 104.546875 38.289062 C 103.3125 37.09375 102.65625 35.472656 102.742188 33.8125 L 102.742188 33.082031 C 102.695312 31.460938 103.34375 29.890625 104.546875 28.726562 C 105.832031 27.636719 107.527344 27.066406 109.261719 27.144531 C 110.53125 27.109375 111.789062 27.390625 112.910156 27.957031 C 113.902344 28.460938 114.707031 29.242188 115.214844 30.1875 C 115.71875 31.199219 115.96875 32.304688 115.949219 33.421875 L 115.949219 34.003906 C 115.957031 34.335938 115.675781 34.609375 115.320312 34.613281 L 107.320312 34.613281 L 107.320312 34.753906 C 107.296875 35.359375 107.480469 35.957031 107.84375 36.457031 C 108.171875 36.882812 108.710938 37.128906 109.273438 37.105469 C 109.609375 37.121094 109.945312 37.039062 110.230469 36.875 C 110.488281 36.71875 110.71875 36.527344 110.914062 36.304688 C 111.015625 36.183594 111.144531 36.085938 111.289062 36.015625 C 111.429688 35.96875 111.578125 35.945312 111.726562 35.957031 L 115 35.957031 C 115.140625 35.953125 115.277344 36 115.386719 36.085938 C 115.488281 36.15625 115.550781 36.273438 115.542969 36.394531 C 115.484375 36.9375 115.222656 37.445312 114.808594 37.828125 C 114.222656 38.445312 113.492188 38.929688 112.675781 39.238281 C 111.617188 39.648438 110.480469 39.847656 109.335938 39.820312 C 107.585938 39.914062 105.867188 39.367188 104.546875 38.289062 Z M 111.320312 32.222656 C 111.363281 31.601562 111.179688 30.984375 110.796875 30.480469 C 110.445312 30.058594 109.894531 29.828125 109.324219 29.859375 C 108.757812 29.824219 108.210938 30.058594 107.863281 30.480469 C 107.492188 30.992188 107.308594 31.601562 107.339844 32.222656 Z M 111.320312 32.222656 "/>
<path style=" stroke:none;fill-rule:nonzero;fill:rgb(15.294118%,65.882353%,87.843137%);fill-opacity:1;" d="M 120.238281 39.289062 C 119.460938 39.015625 118.761719 38.574219 118.203125 37.996094 C 117.816406 37.628906 117.585938 37.148438 117.539062 36.636719 C 117.535156 36.488281 117.601562 36.34375 117.722656 36.246094 C 117.835938 36.148438 117.984375 36.09375 118.136719 36.09375 L 121.167969 36.09375 C 121.257812 36.09375 121.347656 36.125 121.414062 36.183594 L 121.890625 36.496094 C 122.167969 36.691406 122.464844 36.855469 122.777344 36.996094 C 123.089844 37.125 123.429688 37.1875 123.769531 37.175781 C 124.144531 37.183594 124.511719 37.097656 124.835938 36.925781 C 125.109375 36.792969 125.28125 36.523438 125.273438 36.234375 C 125.28125 36.011719 125.199219 35.792969 125.039062 35.625 C 124.773438 35.414062 124.464844 35.257812 124.132812 35.164062 C 123.476562 34.96875 122.804688 34.816406 122.128906 34.714844 C 119.238281 34.160156 117.796875 32.90625 117.796875 30.949219 C 117.804688 30.285156 118.035156 29.640625 118.457031 29.105469 C 118.957031 28.476562 119.632812 27.988281 120.410156 27.695312 C 121.382812 27.308594 122.433594 27.121094 123.492188 27.15625 C 124.585938 27.121094 125.675781 27.300781 126.691406 27.675781 C 127.464844 27.953125 128.160156 28.386719 128.730469 28.945312 C 129.136719 29.300781 129.386719 29.78125 129.433594 30.296875 C 129.433594 30.441406 129.371094 30.578125 129.265625 30.679688 C 129.167969 30.78125 129.027344 30.839844 128.878906 30.839844 L 126.128906 30.839844 C 126.003906 30.847656 125.878906 30.816406 125.777344 30.75 C 125.566406 30.644531 125.367188 30.527344 125.179688 30.398438 C 124.929688 30.230469 124.664062 30.082031 124.386719 29.957031 C 124.117188 29.847656 123.820312 29.796875 123.523438 29.808594 C 123.179688 29.789062 122.839844 29.878906 122.554688 30.058594 C 122.332031 30.214844 122.199219 30.457031 122.203125 30.71875 C 122.191406 30.929688 122.265625 31.132812 122.414062 31.289062 C 122.664062 31.5 122.964844 31.648438 123.289062 31.730469 C 123.949219 31.921875 124.625 32.070312 125.304688 32.171875 C 126.617188 32.304688 127.855469 32.800781 128.871094 33.59375 C 130.28125 34.824219 130.359375 36.894531 129.050781 38.21875 C 128.835938 38.441406 128.585938 38.632812 128.316406 38.789062 C 126.898438 39.546875 125.277344 39.894531 123.652344 39.789062 C 122.492188 39.832031 121.332031 39.664062 120.238281 39.289062 Z M 120.238281 39.289062 "/>
<path style=" stroke:none;fill-rule:nonzero;fill:rgb(92.54902%,48.235294%,16.078431%);fill-opacity:1;" d="M 0.140625 43.515625 L 129.859375 43.515625 L 129.859375 53.964844 L 0.140625 53.964844 Z M 0.140625 43.515625 "/>
<path style=" stroke:none;fill-rule:nonzero;fill:rgb(100%,100%,100%);fill-opacity:1;" d="M 7.703125 52.105469 C 7.660156 52.066406 7.640625 52.015625 7.636719 51.964844 L 7.636719 51.863281 L 10.175781 45.636719 C 10.21875 45.5 10.355469 45.40625 10.507812 45.417969 L 11.167969 45.417969 C 11.320312 45.410156 11.457031 45.5 11.5 45.636719 L 14.039062 51.863281 L 14.039062 51.964844 C 14.039062 52.015625 14.015625 52.066406 13.976562 52.105469 C 13.941406 52.109375 13.902344 52.109375 13.867188 52.105469 L 13.386719 52.105469 C 13.324219 52.105469 13.265625 52.082031 13.21875 52.042969 C 13.175781 52.015625 13.140625 51.980469 13.121094 51.933594 L 12.554688 50.550781 L 9.152344 50.550781 L 8.585938 51.933594 C 8.550781 52.035156 8.449219 52.105469 8.332031 52.105469 L 7.839844 52.105469 C 7.796875 52.117188 7.746094 52.117188 7.703125 52.105469 Z M 9.453125 49.8125 L 12.269531 49.8125 L 10.859375 46.355469 Z M 9.453125 49.8125 "/>
<path style=" stroke:none;fill-rule:nonzero;fill:rgb(100%,100%,100%);fill-opacity:1;" d="M 16.195312 51.625 C 15.761719 51.179688 15.527344 50.59375 15.542969 49.992188 L 15.542969 49.21875 C 15.527344 48.617188 15.761719 48.035156 16.195312 47.589844 C 16.652344 47.175781 17.277344 46.964844 17.910156 47.007812 C 18.339844 46.992188 18.765625 47.074219 19.148438 47.25 C 19.457031 47.386719 19.722656 47.597656 19.917969 47.859375 C 20.070312 48.078125 20.160156 48.328125 20.183594 48.589844 C 20.191406 48.648438 20.167969 48.710938 20.121094 48.75 C 20.074219 48.792969 20.011719 48.816406 19.949219 48.820312 L 19.5 48.820312 C 19.449219 48.835938 19.394531 48.835938 19.339844 48.820312 C 19.296875 48.773438 19.265625 48.71875 19.246094 48.660156 C 19.15625 48.394531 18.976562 48.160156 18.734375 48 C 18.488281 47.859375 18.207031 47.789062 17.921875 47.800781 C 17.527344 47.773438 17.136719 47.910156 16.855469 48.167969 C 16.574219 48.496094 16.433594 48.902344 16.449219 49.320312 L 16.449219 49.992188 C 16.453125 50.398438 16.605469 50.792969 16.886719 51.101562 C 17.171875 51.363281 17.558594 51.5 17.953125 51.472656 C 18.242188 51.480469 18.527344 51.414062 18.777344 51.273438 C 19.011719 51.101562 19.1875 50.867188 19.277344 50.601562 C 19.296875 50.546875 19.332031 50.496094 19.375 50.453125 C 19.414062 50.417969 19.46875 50.398438 19.523438 50.402344 L 19.980469 50.402344 C 20.046875 50.40625 20.105469 50.429688 20.152344 50.472656 C 20.195312 50.507812 20.222656 50.566406 20.214844 50.621094 C 20.191406 50.882812 20.097656 51.136719 19.9375 51.351562 C 19.746094 51.613281 19.484375 51.824219 19.179688 51.964844 C 18.792969 52.140625 18.363281 52.226562 17.933594 52.214844 C 17.289062 52.261719 16.65625 52.042969 16.195312 51.625 Z M 16.195312 51.625 "/>
<path style=" stroke:none;fill-rule:nonzero;fill:rgb(100%,100%,100%);fill-opacity:1;" d="M 22.679688 51.613281 C 22.308594 51.167969 22.117188 50.609375 22.148438 50.042969 L 22.148438 47.328125 C 22.144531 47.265625 22.167969 47.203125 22.21875 47.160156 C 22.269531 47.113281 22.335938 47.09375 22.402344 47.097656 L 22.894531 47.097656 C 22.953125 47.09375 23.015625 47.117188 23.058594 47.15625 C 23.101562 47.195312 23.128906 47.25 23.128906 47.308594 L 23.128906 49.992188 C 23.128906 50.992188 23.585938 51.453125 24.484375 51.453125 C 24.882812 51.480469 25.273438 51.335938 25.550781 51.0625 C 25.816406 50.761719 25.953125 50.382812 25.933594 49.992188 L 25.933594 47.328125 C 25.929688 47.269531 25.953125 47.210938 25.996094 47.167969 C 26.035156 47.125 26.09375 47.101562 26.15625 47.097656 L 26.636719 47.097656 C 26.699219 47.09375 26.757812 47.117188 26.804688 47.15625 C 26.847656 47.195312 26.871094 47.25 26.871094 47.308594 L 26.871094 51.882812 C 26.878906 51.941406 26.859375 52 26.820312 52.042969 C 26.777344 52.085938 26.722656 52.113281 26.660156 52.113281 L 26.136719 52.113281 C 26.074219 52.117188 26.015625 52.09375 25.972656 52.054688 C 25.925781 52.015625 25.902344 51.960938 25.902344 51.902344 L 25.902344 51.453125 C 25.71875 51.691406 25.476562 51.882812 25.199219 52.015625 C 24.878906 52.152344 24.535156 52.214844 24.183594 52.203125 C 23.613281 52.234375 23.058594 52.015625 22.679688 51.613281 Z M 22.679688 51.613281 "/>
<path style=" stroke:none;fill-rule:nonzero;fill:rgb(100%,100%,100%);fill-opacity:1;" d="M 29.570312 51.59375 C 29.132812 51.132812 28.890625 50.539062 28.890625 49.921875 L 28.890625 49.28125 C 28.890625 48.667969 29.132812 48.074219 29.570312 47.617188 C 30.546875 46.78125 32.054688 46.804688 32.996094 47.679688 C 33.433594 48.199219 33.65625 48.851562 33.613281 49.511719 L 33.613281 49.679688 C 33.617188 49.738281 33.59375 49.792969 33.554688 49.835938 C 33.511719 49.878906 33.453125 49.902344 33.390625 49.902344 L 29.871094 49.902344 L 29.871094 49.992188 C 29.855469 50.390625 29.980469 50.78125 30.234375 51.101562 C 30.472656 51.386719 30.839844 51.550781 31.226562 51.542969 C 31.5 51.554688 31.773438 51.492188 32.015625 51.363281 C 32.1875 51.265625 32.34375 51.140625 32.472656 50.992188 C 32.511719 50.9375 32.558594 50.890625 32.613281 50.851562 C 32.671875 50.835938 32.734375 50.835938 32.792969 50.851562 L 33.242188 50.851562 C 33.292969 50.835938 33.347656 50.835938 33.402344 50.851562 C 33.445312 50.882812 33.46875 50.933594 33.464844 50.984375 C 33.4375 51.175781 33.339844 51.355469 33.1875 51.492188 C 32.972656 51.714844 32.707031 51.890625 32.410156 52.003906 C 32.039062 52.15625 31.640625 52.230469 31.234375 52.222656 C 30.609375 52.253906 30 52.023438 29.570312 51.59375 Z M 32.675781 49.25 C 32.695312 48.851562 32.558594 48.460938 32.292969 48.148438 C 32.015625 47.871094 31.628906 47.714844 31.226562 47.714844 C 30.820312 47.714844 30.433594 47.871094 30.160156 48.148438 C 29.898438 48.464844 29.765625 48.851562 29.785156 49.25 Z M 32.675781 49.25 "/>
<path style=" stroke:none;fill-rule:nonzero;fill:rgb(100%,100%,100%);fill-opacity:1;" d="M 35.714844 52.042969 C 35.667969 52.003906 35.640625 51.945312 35.640625 51.882812 L 35.640625 47.339844 C 35.640625 47.273438 35.667969 47.210938 35.714844 47.167969 C 35.757812 47.125 35.816406 47.101562 35.875 47.097656 L 36.269531 47.097656 C 36.398438 47.09375 36.503906 47.179688 36.515625 47.296875 L 36.515625 47.757812 C 36.832031 47.292969 37.402344 47.035156 37.988281 47.097656 L 38.40625 47.097656 C 38.460938 47.09375 38.519531 47.109375 38.5625 47.140625 C 38.605469 47.175781 38.632812 47.226562 38.640625 47.277344 L 38.640625 47.679688 C 38.648438 47.738281 38.628906 47.796875 38.585938 47.839844 C 38.535156 47.878906 38.472656 47.898438 38.40625 47.898438 L 37.816406 47.898438 C 37.492188 47.886719 37.171875 48 36.933594 48.210938 C 36.707031 48.433594 36.59375 48.734375 36.613281 49.039062 L 36.613281 51.882812 C 36.613281 51.945312 36.585938 52.003906 36.539062 52.042969 C 36.492188 52.082031 36.429688 52.105469 36.367188 52.105469 L 35.910156 52.105469 C 35.835938 52.117188 35.765625 52.09375 35.714844 52.042969 Z M 35.714844 52.042969 "/>
<path style=" stroke:none;fill-rule:nonzero;fill:rgb(100%,100%,100%);fill-opacity:1;" d="M 40.539062 51.554688 C 40.15625 51.074219 39.949219 50.492188 39.953125 49.890625 L 39.953125 49.320312 C 39.957031 48.726562 40.164062 48.148438 40.539062 47.667969 C 40.929688 47.21875 41.53125 46.972656 42.148438 47.007812 C 42.792969 46.984375 43.410156 47.246094 43.8125 47.71875 L 43.8125 45.496094 C 43.808594 45.441406 43.832031 45.386719 43.871094 45.34375 C 43.910156 45.304688 43.96875 45.277344 44.027344 45.277344 L 44.507812 45.277344 C 44.566406 45.273438 44.625 45.292969 44.667969 45.332031 C 44.710938 45.367188 44.738281 45.421875 44.742188 45.476562 L 44.742188 51.882812 C 44.746094 51.941406 44.726562 52 44.6875 52.042969 C 44.648438 52.085938 44.589844 52.113281 44.527344 52.113281 L 44.070312 52.113281 C 44.003906 52.117188 43.941406 52.089844 43.898438 52.042969 C 43.882812 51.992188 43.882812 51.9375 43.898438 51.882812 L 43.898438 51.472656 C 43.5 51.964844 42.863281 52.242188 42.203125 52.203125 C 41.566406 52.265625 40.941406 52.019531 40.539062 51.554688 Z M 43.417969 51.003906 C 43.636719 50.6875 43.75 50.316406 43.738281 49.941406 C 43.738281 49.871094 43.738281 49.75 43.738281 49.582031 C 43.738281 49.410156 43.738281 49.28125 43.738281 49.199219 C 43.722656 48.835938 43.585938 48.484375 43.34375 48.199219 C 43.078125 47.910156 42.683594 47.753906 42.277344 47.777344 C 41.867188 47.75 41.46875 47.910156 41.210938 48.210938 C 40.972656 48.546875 40.847656 48.9375 40.847656 49.339844 L 40.847656 49.632812 C 40.847656 50.863281 41.328125 51.472656 42.296875 51.472656 C 42.710938 51.5 43.113281 51.328125 43.367188 51.023438 Z M 43.417969 51.003906 "/>
<path style=" stroke:none;fill-rule:nonzero;fill:rgb(100%,100%,100%);fill-opacity:1;" d="M 47.472656 51.613281 C 47.046875 51.179688 46.8125 50.609375 46.820312 50.019531 L 46.820312 49.191406 C 46.816406 48.601562 47.054688 48.03125 47.484375 47.597656 C 48.480469 46.808594 49.941406 46.808594 50.941406 47.597656 C 51.363281 48.03125 51.601562 48.601562 51.601562 49.191406 C 51.601562 49.332031 51.601562 49.472656 51.601562 49.601562 C 51.601562 49.730469 51.601562 49.882812 51.601562 50.019531 C 51.601562 50.609375 51.367188 51.175781 50.949219 51.613281 C 49.945312 52.402344 48.480469 52.402344 47.472656 51.613281 Z M 50.246094 51.101562 C 50.527344 50.789062 50.671875 50.390625 50.664062 49.980469 C 50.671875 49.859375 50.671875 49.734375 50.664062 49.609375 C 50.671875 49.492188 50.671875 49.371094 50.664062 49.25 C 50.679688 48.832031 50.53125 48.421875 50.246094 48.097656 C 49.964844 47.832031 49.578125 47.683594 49.179688 47.683594 C 48.777344 47.683594 48.394531 47.832031 48.113281 48.097656 C 47.832031 48.414062 47.683594 48.8125 47.695312 49.21875 L 47.695312 49.953125 C 47.691406 50.378906 47.859375 50.789062 48.164062 51.101562 C 48.746094 51.625 49.664062 51.625 50.246094 51.101562 Z M 50.246094 51.101562 "/>
<path style=" stroke:none;fill-rule:nonzero;fill:rgb(100%,100%,100%);fill-opacity:1;" d="M 57.53125 51.472656 C 57.101562 50.925781 56.875 50.261719 56.882812 49.582031 L 56.882812 47.890625 C 56.871094 47.207031 57.097656 46.542969 57.53125 45.996094 C 58.621094 45.027344 60.328125 45.027344 61.414062 45.996094 C 61.84375 46.542969 62.074219 47.207031 62.066406 47.890625 C 62.066406 48.070312 62.066406 48.359375 62.066406 48.75 C 62.066406 49.140625 62.066406 49.402344 62.066406 49.582031 C 62.070312 50.261719 61.839844 50.921875 61.414062 51.472656 C 60.328125 52.445312 58.621094 52.445312 57.53125 51.472656 Z M 60.65625 50.914062 C 60.949219 50.503906 61.09375 50.019531 61.074219 49.53125 C 61.074219 49.339844 61.074219 49.070312 61.074219 48.730469 C 61.074219 48.390625 61.074219 48.121094 61.074219 47.9375 C 61.09375 47.449219 60.945312 46.960938 60.648438 46.558594 C 60.351562 46.238281 59.921875 46.054688 59.46875 46.054688 C 59.015625 46.054688 58.585938 46.238281 58.289062 46.558594 C 57.996094 46.964844 57.847656 47.449219 57.863281 47.9375 L 57.863281 49.53125 C 57.84375 50.023438 57.992188 50.507812 58.289062 50.914062 C 58.882812 51.527344 59.898438 51.570312 60.550781 51.011719 Z M 60.65625 50.914062 "/>
<path style=" stroke:none;fill-rule:nonzero;fill:rgb(100%,100%,100%);fill-opacity:1;" d="M 67.453125 52.042969 C 67.40625 52.003906 67.382812 51.945312 67.390625 51.882812 L 67.390625 50.480469 L 64.007812 50.480469 C 63.945312 50.484375 63.886719 50.464844 63.84375 50.425781 C 63.796875 50.382812 63.773438 50.328125 63.773438 50.273438 L 63.773438 49.902344 C 63.773438 49.796875 63.8125 49.695312 63.878906 49.609375 L 66.972656 45.527344 C 67.011719 45.472656 67.0625 45.433594 67.121094 45.40625 C 67.195312 45.390625 67.273438 45.390625 67.347656 45.40625 L 68.050781 45.40625 C 68.109375 45.402344 68.164062 45.417969 68.207031 45.449219 C 68.253906 45.484375 68.28125 45.53125 68.285156 45.585938 L 68.285156 49.671875 L 69.222656 49.671875 C 69.285156 49.667969 69.34375 49.6875 69.386719 49.726562 C 69.429688 49.761719 69.457031 49.816406 69.460938 49.871094 L 69.460938 50.261719 C 69.453125 50.378906 69.359375 50.472656 69.234375 50.480469 L 68.285156 50.480469 L 68.285156 51.882812 C 68.292969 51.941406 68.273438 52 68.230469 52.042969 C 68.191406 52.085938 68.132812 52.113281 68.074219 52.113281 L 67.582031 52.113281 C 67.53125 52.105469 67.484375 52.082031 67.453125 52.042969 Z M 64.882812 49.699219 L 67.390625 49.699219 L 67.390625 46.347656 Z M 64.882812 49.699219 "/>
<path style=" stroke:none;fill-rule:nonzero;fill:rgb(100%,100%,100%);fill-opacity:1;" d="M 72.265625 51.945312 C 71.921875 51.792969 71.625 51.558594 71.410156 51.261719 C 71.210938 51 71.097656 50.6875 71.089844 50.363281 C 71.074219 50.320312 71.074219 50.273438 71.089844 50.230469 C 71.140625 50.21875 71.191406 50.21875 71.242188 50.230469 L 71.742188 50.230469 C 71.875 50.230469 71.992188 50.316406 72.019531 50.441406 C 72.09375 50.761719 72.296875 51.039062 72.585938 51.222656 C 72.871094 51.394531 73.207031 51.480469 73.546875 51.472656 C 73.972656 51.488281 74.390625 51.34375 74.707031 51.074219 C 75.019531 50.785156 75.1875 50.382812 75.167969 49.972656 C 75.179688 49.589844 75.011719 49.222656 74.707031 48.96875 C 74.414062 48.699219 74.023438 48.535156 73.609375 48.507812 C 73.40625 48.507812 73.203125 48.539062 73.011719 48.601562 C 72.847656 48.664062 72.691406 48.746094 72.554688 48.851562 C 72.484375 48.90625 72.410156 48.953125 72.328125 48.992188 C 72.269531 49.003906 72.207031 49.003906 72.148438 48.992188 L 71.644531 48.992188 C 71.523438 48.992188 71.421875 48.894531 71.421875 48.78125 L 71.742188 45.578125 C 71.742188 45.417969 71.828125 45.335938 72 45.335938 L 75.550781 45.335938 C 75.605469 45.328125 75.664062 45.339844 75.707031 45.375 C 75.75 45.40625 75.78125 45.453125 75.785156 45.507812 L 75.785156 45.90625 C 75.800781 45.972656 75.785156 46.042969 75.742188 46.097656 C 75.695312 46.136719 75.632812 46.15625 75.570312 46.148438 L 72.542969 46.148438 L 72.402344 48.097656 C 72.796875 47.863281 73.257812 47.746094 73.726562 47.769531 C 74.15625 47.765625 74.585938 47.855469 74.972656 48.027344 C 75.347656 48.1875 75.660156 48.445312 75.882812 48.769531 C 76.105469 49.121094 76.222656 49.523438 76.210938 49.929688 C 76.222656 50.363281 76.105469 50.789062 75.882812 51.164062 C 75.660156 51.503906 75.339844 51.777344 74.953125 51.945312 C 74.53125 52.125 74.070312 52.210938 73.609375 52.203125 C 73.144531 52.214844 72.6875 52.125 72.265625 51.945312 Z M 72.265625 51.945312 "/>
<path style=" stroke:none;fill-rule:nonzero;fill:rgb(100%,100%,100%);fill-opacity:1;" d="M 81.875 51.554688 C 81.5 51.070312 81.300781 50.488281 81.300781 49.890625 L 81.300781 49.320312 C 81.296875 48.726562 81.5 48.148438 81.875 47.667969 C 82.269531 47.21875 82.867188 46.972656 83.488281 47.007812 C 84.132812 46.976562 84.753906 47.242188 85.152344 47.71875 L 85.152344 45.496094 C 85.148438 45.4375 85.171875 45.382812 85.214844 45.339844 C 85.257812 45.300781 85.316406 45.277344 85.375 45.277344 L 85.855469 45.277344 C 85.980469 45.277344 86.085938 45.367188 86.089844 45.484375 L 86.089844 51.875 C 86.089844 51.992188 85.992188 52.09375 85.867188 52.105469 L 85.40625 52.105469 C 85.34375 52.105469 85.285156 52.082031 85.246094 52.035156 C 85.207031 51.988281 85.183594 51.933594 85.183594 51.875 L 85.183594 51.464844 C 84.785156 51.957031 84.148438 52.234375 83.488281 52.195312 C 82.871094 52.238281 82.273438 52 81.875 51.554688 Z M 84.769531 51.003906 C 85.007812 50.691406 85.140625 50.324219 85.152344 49.941406 C 85.160156 49.820312 85.160156 49.699219 85.152344 49.582031 C 85.160156 49.453125 85.160156 49.328125 85.152344 49.199219 C 85.144531 48.835938 85.007812 48.480469 84.757812 48.199219 C 84.492188 47.90625 84.097656 47.75 83.691406 47.777344 C 83.28125 47.746094 82.878906 47.90625 82.625 48.210938 C 82.378906 48.542969 82.25 48.9375 82.25 49.339844 L 82.25 49.632812 C 82.25 50.863281 82.742188 51.472656 83.710938 51.472656 C 84.125 51.496094 84.523438 51.328125 84.777344 51.023438 Z M 84.769531 51.003906 "/>
<path style=" stroke:none;fill-rule:nonzero;fill:rgb(100%,100%,100%);fill-opacity:1;" d="M 88.855469 51.59375 C 88.414062 51.132812 88.171875 50.539062 88.171875 49.921875 L 88.171875 49.28125 C 88.171875 48.667969 88.417969 48.074219 88.855469 47.617188 C 89.828125 46.78125 91.335938 46.804688 92.277344 47.679688 C 92.714844 48.199219 92.9375 48.851562 92.898438 49.511719 L 92.898438 49.679688 C 92.898438 49.738281 92.878906 49.792969 92.835938 49.835938 C 92.792969 49.878906 92.734375 49.902344 92.671875 49.902344 L 89.097656 49.902344 L 89.097656 49.992188 C 89.101562 50.394531 89.25 50.785156 89.515625 51.101562 C 89.757812 51.390625 90.128906 51.550781 90.519531 51.542969 C 90.789062 51.554688 91.0625 51.492188 91.296875 51.363281 C 91.472656 51.265625 91.628906 51.140625 91.753906 50.992188 C 91.796875 50.9375 91.847656 50.890625 91.90625 50.851562 C 91.960938 50.835938 92.019531 50.835938 92.074219 50.851562 L 92.523438 50.851562 C 92.574219 50.835938 92.632812 50.835938 92.683594 50.851562 C 92.730469 50.882812 92.753906 50.929688 92.746094 50.984375 C 92.722656 51.179688 92.625 51.359375 92.46875 51.492188 C 92.253906 51.714844 91.988281 51.890625 91.691406 52.003906 C 91.324219 52.15625 90.929688 52.230469 90.527344 52.222656 C 89.898438 52.25 89.289062 52.019531 88.855469 51.59375 Z M 91.957031 49.25 C 91.980469 48.851562 91.84375 48.460938 91.574219 48.148438 C 91.308594 47.863281 90.914062 47.707031 90.507812 47.730469 C 90.101562 47.703125 89.707031 47.859375 89.441406 48.148438 C 89.171875 48.460938 89.035156 48.851562 89.054688 49.25 Z M 91.957031 49.25 "/>
<path style=" stroke:none;fill-rule:nonzero;fill:rgb(100%,100%,100%);fill-opacity:1;" d="M 98.027344 52.042969 C 97.984375 52 97.960938 51.941406 97.964844 51.882812 L 97.964844 51.601562 C 97.976562 51.429688 98.070312 51.273438 98.21875 51.171875 L 100.460938 49.101562 C 100.851562 48.804688 101.210938 48.46875 101.527344 48.097656 C 101.710938 47.863281 101.8125 47.582031 101.816406 47.289062 C 101.835938 46.960938 101.710938 46.636719 101.472656 46.398438 C 100.902344 45.957031 100.082031 45.957031 99.511719 46.398438 C 99.261719 46.648438 99.109375 46.96875 99.074219 47.308594 C 99.0625 47.371094 99.027344 47.429688 98.976562 47.46875 C 98.925781 47.5 98.867188 47.519531 98.808594 47.527344 L 98.316406 47.527344 C 98.199219 47.523438 98.109375 47.4375 98.101562 47.328125 C 98.113281 46.976562 98.214844 46.636719 98.390625 46.328125 C 98.582031 46.007812 98.859375 45.738281 99.191406 45.546875 C 99.585938 45.332031 100.035156 45.230469 100.492188 45.246094 C 101.125 45.199219 101.753906 45.402344 102.21875 45.804688 C 102.605469 46.195312 102.8125 46.707031 102.796875 47.238281 C 102.800781 47.621094 102.695312 48 102.488281 48.328125 C 102.21875 48.710938 101.886719 49.046875 101.503906 49.332031 L 99.46875 51.304688 L 102.667969 51.304688 C 102.726562 51.292969 102.785156 51.308594 102.828125 51.339844 C 102.875 51.371094 102.90625 51.417969 102.914062 51.472656 L 102.914062 51.882812 C 102.917969 51.941406 102.894531 51.996094 102.851562 52.039062 C 102.808594 52.082031 102.75 52.105469 102.691406 52.105469 L 98.199219 52.105469 C 98.136719 52.109375 98.074219 52.085938 98.027344 52.042969 Z M 98.027344 52.042969 "/>
<path style=" stroke:none;fill-rule:nonzero;fill:rgb(100%,100%,100%);fill-opacity:1;" d="M 105.539062 51.472656 C 105.109375 50.925781 104.878906 50.261719 104.886719 49.582031 L 104.886719 47.890625 C 104.875 47.207031 105.105469 46.542969 105.539062 45.996094 C 106.625 45.027344 108.332031 45.027344 109.421875 45.996094 C 109.851562 46.542969 110.078125 47.207031 110.070312 47.890625 C 110.070312 48.070312 110.070312 48.359375 110.070312 48.75 C 110.070312 49.140625 110.070312 49.402344 110.070312 49.582031 C 110.074219 50.261719 109.847656 50.921875 109.421875 51.472656 C 108.332031 52.445312 106.625 52.445312 105.539062 51.472656 Z M 108.664062 50.914062 C 108.953125 50.503906 109.097656 50.019531 109.082031 49.53125 C 109.082031 49.339844 109.082031 49.070312 109.082031 48.730469 C 109.082031 48.390625 109.082031 48.121094 109.082031 47.9375 C 109.101562 47.449219 108.949219 46.960938 108.652344 46.558594 C 108.355469 46.238281 107.925781 46.054688 107.472656 46.054688 C 107.023438 46.054688 106.59375 46.238281 106.296875 46.558594 C 106.003906 46.964844 105.851562 47.449219 105.867188 47.9375 L 105.867188 49.53125 C 105.847656 50.023438 106 50.507812 106.296875 50.914062 C 106.890625 51.527344 107.902344 51.570312 108.558594 51.011719 Z M 108.664062 50.914062 "/>
<path style=" stroke:none;fill-rule:nonzero;fill:rgb(100%,100%,100%);fill-opacity:1;" d="M 112.8125 51.472656 C 112.382812 50.925781 112.15625 50.261719 112.164062 49.582031 L 112.164062 47.890625 C 112.152344 47.207031 112.378906 46.542969 112.8125 45.996094 C 113.902344 45.027344 115.609375 45.027344 116.695312 45.996094 C 117.132812 46.542969 117.359375 47.207031 117.347656 47.890625 C 117.347656 48.070312 117.347656 48.359375 117.347656 48.75 C 117.347656 49.140625 117.347656 49.402344 117.347656 49.582031 C 117.355469 50.261719 117.125 50.925781 116.695312 51.472656 C 115.609375 52.445312 113.902344 52.445312 112.8125 51.472656 Z M 115.941406 50.914062 C 116.234375 50.507812 116.378906 50.019531 116.355469 49.53125 C 116.355469 49.339844 116.355469 49.070312 116.355469 48.730469 C 116.355469 48.390625 116.355469 48.121094 116.355469 47.9375 C 116.375 47.449219 116.230469 46.964844 115.941406 46.558594 C 115.652344 46.222656 115.210938 46.035156 114.753906 46.058594 C 114.296875 46.03125 113.855469 46.21875 113.570312 46.558594 C 113.285156 46.96875 113.132812 47.449219 113.144531 47.9375 L 113.144531 49.53125 C 113.128906 50.023438 113.277344 50.503906 113.570312 50.914062 C 114.167969 51.527344 115.179688 51.570312 115.832031 51.011719 C 115.875 50.984375 115.910156 50.949219 115.941406 50.914062 Z M 115.941406 50.914062 "/>
<path style=" stroke:none;fill-rule:nonzero;fill:rgb(100%,100%,100%);fill-opacity:1;" d="M 121.445312 52.042969 C 121.421875 51.992188 121.421875 51.933594 121.445312 51.882812 L 121.445312 46.457031 L 119.714844 47.699219 C 119.675781 47.738281 119.621094 47.757812 119.566406 47.757812 C 119.492188 47.753906 119.425781 47.714844 119.386719 47.660156 L 119.140625 47.367188 C 119.128906 47.320312 119.128906 47.273438 119.140625 47.226562 C 119.144531 47.160156 119.183594 47.09375 119.246094 47.058594 L 121.476562 45.4375 C 121.554688 45.390625 121.648438 45.371094 121.742188 45.375 L 122.222656 45.375 C 122.28125 45.375 122.339844 45.394531 122.382812 45.429688 C 122.429688 45.46875 122.453125 45.519531 122.457031 45.578125 L 122.457031 51.894531 C 122.460938 51.949219 122.4375 52.007812 122.394531 52.046875 C 122.355469 52.089844 122.296875 52.113281 122.234375 52.113281 L 121.613281 52.113281 C 121.550781 52.117188 121.488281 52.089844 121.445312 52.042969 Z M 121.445312 52.042969 "/>
<path style=" stroke:none;fill-rule:nonzero;fill:rgb(15.294118%,65.882353%,87.843137%);fill-opacity:1;" d="M 49.5 22.960938 C 50.40625 22.957031 51.3125 23.046875 52.199219 23.230469 C 53 23.382812 53.761719 23.664062 54.460938 24.0625 C 55.097656 24.433594 55.636719 24.941406 56.027344 25.542969 C 56.429688 26.210938 56.632812 26.96875 56.613281 27.734375 L 56.613281 28.667969 C 56.621094 29.339844 56.4375 30.003906 56.082031 30.589844 C 55.710938 31.183594 55.207031 31.695312 54.597656 32.082031 C 53.917969 32.539062 53.15625 32.878906 52.347656 33.082031 C 51.417969 33.316406 50.460938 33.433594 49.5 33.421875 L 48.433594 33.421875 C 47.980469 33.421875 47.609375 33.765625 47.609375 34.191406 L 47.609375 38.546875 C 47.613281 38.753906 47.527344 38.953125 47.375 39.097656 C 47.21875 39.242188 47.007812 39.320312 46.789062 39.320312 L 43.589844 39.320312 C 43.136719 39.320312 42.769531 38.972656 42.769531 38.546875 L 42.769531 23.730469 C 42.769531 23.304688 43.136719 22.960938 43.589844 22.960938 Z M 51.941406 27.855469 C 51.992188 27.390625 51.714844 26.949219 51.257812 26.765625 C 50.6875 26.574219 50.082031 26.488281 49.476562 26.503906 L 48.410156 26.503906 C 48.191406 26.5 47.980469 26.582031 47.828125 26.726562 C 47.671875 26.871094 47.585938 27.070312 47.589844 27.273438 L 47.589844 29.078125 C 47.589844 29.503906 47.957031 29.847656 48.410156 29.847656 L 49.476562 29.847656 C 50.09375 29.875 50.707031 29.769531 51.269531 29.539062 C 51.703125 29.378906 51.976562 28.972656 51.941406 28.535156 Z M 51.941406 27.855469 "/>
<path style=" stroke:none;fill-rule:nonzero;fill:rgb(15.294118%,65.882353%,87.843137%);fill-opacity:1;" d="M 8.855469 37.957031 C 7.691406 36.964844 7.019531 35.558594 7.007812 34.082031 C 7.007812 33.882812 7.007812 33.523438 7.007812 33.023438 C 7.007812 32.519531 7.007812 32.171875 7.007812 32.019531 C 7.007812 30.511719 7.695312 29.078125 8.898438 28.078125 C 11.789062 26.210938 15.605469 26.210938 18.5 28.078125 C 19.683594 29.0625 20.371094 30.472656 20.386719 31.960938 C 20.386719 32.371094 20.386719 32.722656 20.386719 32.960938 C 20.386719 33.203125 20.386719 33.613281 20.386719 34.023438 C 20.378906 35.507812 19.710938 36.925781 18.539062 37.925781 C 15.609375 39.757812 11.796875 39.757812 8.863281 37.925781 Z M 15.253906 35.773438 C 15.640625 35.230469 15.84375 34.585938 15.832031 33.933594 C 15.847656 33.621094 15.847656 33.304688 15.832031 32.992188 C 15.847656 32.683594 15.847656 32.371094 15.832031 32.0625 C 15.839844 31.410156 15.640625 30.769531 15.253906 30.230469 C 14.441406 29.449219 13.113281 29.421875 12.269531 30.167969 L 12.203125 30.230469 C 11.808594 30.777344 11.59375 31.421875 11.585938 32.082031 L 11.585938 33.953125 C 11.578125 34.605469 11.78125 35.25 12.160156 35.796875 C 12.5625 36.175781 13.109375 36.390625 13.683594 36.390625 C 14.253906 36.390625 14.800781 36.175781 15.203125 35.796875 Z M 15.253906 35.773438 "/>
</g>
</svg>
